<?xml version="1.0" encoding="UTF-8"?>
<svg id="Layer_1" data-name="Layer 1" xmlns="http://www.w3.org/2000/svg" viewBox="0 0 294.77 270.6">
  <path d="M217.59,179.13c-5.92,3.42-12.69.62-15.47-4.36-3.07-5.5-1.18-12.22,4.44-15.46l70.88-40.94c5.72-3.3,12.45-1.52,15.68,3.77s1.78,12.38-4.01,15.72l-71.51,41.27Z"/>
  <path d="M210.25,224.74c0,25.32-20.53,45.85-45.85,45.85s-45.85-20.53-45.85-45.85,20.53-45.85,45.85-45.85,45.85,20.53,45.85,45.85ZM187.54,224.74c0-12.78-10.36-23.14-23.14-23.14s-23.14,10.36-23.14,23.14,10.36,23.14,23.14,23.14,23.14-10.36,23.14-23.14Z"/>
  <g>
    <path d="M51.13,72.92c-10.06-9.58-22.27-8.76-33.83-2.22-5.5,3.12-12.02,1.62-15.38-3.35s-2.25-12.35,3.27-15.81c6.31-3.96,13.12-6.35,20.49-7.86,16.56-2.65,33.23,3.06,43.98,15.96l58.56,101.38c3.31,5.73,2.03,12.19-3.23,15.74s-12.58,2.29-15.99-3.6l-57.89-100.24Z"/>
    <g>
      <path d="M164.98,158.42c-5.64,3.26-12.85,2.76-16.21-3.05l-50.55-87.43c-3.05-5.27-2.21-12.41,3.47-15.69L189.11,1.72c5.71-3.3,12.6-1.79,15.97,4.06l50.23,86.98c3.43,5.94,1.38,12.69-4.45,16.06l-85.88,49.59ZM191.06,26.72l-67.87,39.18,39.19,67.88,67.87-39.18-39.19-67.88Z"/>
      <path d="M175.4,93.68c-5.78,3.37-12.42,1.23-15.52-3.75s-1.9-12.41,3.61-15.56l15.27-8.74c5.42-3.1,12.05-.06,14.73,4.93s1.32,11.8-3.99,14.89l-14.1,8.22Z"/>
    </g>
  </g>
</svg>