<?xml version="1.0" encoding="UTF-8" standalone="no"?>
<!-- Created with Inkscape (http://www.inkscape.org/) -->

<svg
   version="1.1"
   id="svg1"
   width="1440"
   height="1440"
   viewBox="0 0 1440 1440"
   sodipodi:docname="Applex Logo.ai"
   xmlns:inkscape="http://www.inkscape.org/namespaces/inkscape"
   xmlns:sodipodi="http://sodipodi.sourceforge.net/DTD/sodipodi-0.dtd"
   xmlns="http://www.w3.org/2000/svg"
   xmlns:svg="http://www.w3.org/2000/svg">
  <defs
     id="defs1">
    <clipPath
       clipPathUnits="userSpaceOnUse"
       id="clipPath2">
      <path
         d="M 0,1080 H 1080 V 0 H 0 Z"
         transform="translate(-686.96722,-415.93351)"
         id="path2" />
    </clipPath>
    <clipPath
       clipPathUnits="userSpaceOnUse"
       id="clipPath5">
      <path
         d="M 0,1080 H 1080 V 0 H 0 Z"
         transform="translate(-379.45071,-401.78641)"
         id="path5" />
    </clipPath>
    <clipPath
       clipPathUnits="userSpaceOnUse"
       id="clipPath7">
      <path
         d="M 0,1080 H 1080 V 0 H 0 Z"
         transform="translate(-357.36181,-335.26471)"
         id="path7" />
    </clipPath>
    <clipPath
       clipPathUnits="userSpaceOnUse"
       id="clipPath9">
      <path
         d="M 0,1080 H 1080 V 0 H 0 Z"
         transform="translate(-534.01321,-401.78641)"
         id="path9" />
    </clipPath>
    <clipPath
       clipPathUnits="userSpaceOnUse"
       id="clipPath11">
      <path
         d="M 0,1080 H 1080 V 0 H 0 Z"
         transform="translate(-511.92442,-335.26471)"
         id="path11" />
    </clipPath>
    <clipPath
       clipPathUnits="userSpaceOnUse"
       id="clipPath13">
      <path
         d="M 0,1080 H 1080 V 0 H 0 Z"
         transform="translate(-236.31481,-384.20571)"
         id="path13" />
    </clipPath>
    <clipPath
       clipPathUnits="userSpaceOnUse"
       id="clipPath15">
      <path
         d="M 0,1080 H 1080 V 0 H 0 Z"
         transform="translate(-238.3165,-351.17641)"
         id="path15" />
    </clipPath>
    <clipPath
       clipPathUnits="userSpaceOnUse"
       id="clipPath17">
      <path
         d="M 0,1080 H 1080 V 0 H 0 Z"
         transform="translate(-592.01662,-494.94441)"
         id="path17" />
    </clipPath>
    <clipPath
       clipPathUnits="userSpaceOnUse"
       id="clipPath19">
      <path
         d="M 0,1080 H 1080 V 0 H 0 Z"
         transform="translate(-641.23502,-337.21411)"
         id="path19" />
    </clipPath>
    <clipPath
       clipPathUnits="userSpaceOnUse"
       id="clipPath21">
      <path
         d="M 0,1080 H 1080 V 0 H 0 Z"
         transform="translate(-896.2252,-488.49731)"
         id="path21" />
    </clipPath>
    <clipPath
       clipPathUnits="userSpaceOnUse"
       id="clipPath23">
      <path
         d="M 0,1080 H 1080 V 0 H 0 Z"
         transform="translate(-682.24022,-786.50312)"
         id="path23" />
    </clipPath>
    <clipPath
       clipPathUnits="userSpaceOnUse"
       id="clipPath25">
      <path
         d="M 0,1080 H 1080 V 0 H 0 Z"
         transform="translate(-686.96722,-415.93351)"
         id="path25" />
    </clipPath>
    <clipPath
       clipPathUnits="userSpaceOnUse"
       id="clipPath27">
      <path
         d="M 0,1080 H 1080 V 0 H 0 Z"
         transform="translate(-841.9075,-383.36471)"
         id="path27" />
    </clipPath>
    <clipPath
       clipPathUnits="userSpaceOnUse"
       id="clipPath29">
      <path
         d="M 0,1080 H 1080 V 0 H 0 Z"
         transform="translate(-379.45071,-401.78641)"
         id="path29" />
    </clipPath>
    <clipPath
       clipPathUnits="userSpaceOnUse"
       id="clipPath31">
      <path
         d="M 0,1080 H 1080 V 0 H 0 Z"
         transform="translate(-357.36181,-335.26471)"
         id="path31" />
    </clipPath>
    <clipPath
       clipPathUnits="userSpaceOnUse"
       id="clipPath33">
      <path
         d="M 0,1080 H 1080 V 0 H 0 Z"
         transform="translate(-534.01321,-401.78641)"
         id="path33" />
    </clipPath>
    <clipPath
       clipPathUnits="userSpaceOnUse"
       id="clipPath35">
      <path
         d="M 0,1080 H 1080 V 0 H 0 Z"
         transform="translate(-511.92442,-335.26471)"
         id="path35" />
    </clipPath>
    <clipPath
       clipPathUnits="userSpaceOnUse"
       id="clipPath37">
      <path
         d="M 0,1080 H 1080 V 0 H 0 Z"
         transform="translate(-236.31481,-384.20571)"
         id="path37" />
    </clipPath>
    <clipPath
       clipPathUnits="userSpaceOnUse"
       id="clipPath39">
      <path
         d="M 0,1080 H 1080 V 0 H 0 Z"
         transform="translate(-238.3165,-351.17641)"
         id="path39" />
    </clipPath>
    <clipPath
       clipPathUnits="userSpaceOnUse"
       id="clipPath41">
      <path
         d="M 0,1080 H 1080 V 0 H 0 Z"
         transform="translate(-592.01662,-494.94441)"
         id="path41" />
    </clipPath>
    <clipPath
       clipPathUnits="userSpaceOnUse"
       id="clipPath43">
      <path
         d="M 0,1080 H 1080 V 0 H 0 Z"
         transform="translate(-641.23502,-337.21411)"
         id="path43" />
    </clipPath>
    <clipPath
       clipPathUnits="userSpaceOnUse"
       id="clipPath45">
      <path
         d="M 0,1080 H 1080 V 0 H 0 Z"
         transform="translate(-896.2252,-488.49731)"
         id="path45" />
    </clipPath>
    <clipPath
       clipPathUnits="userSpaceOnUse"
       id="clipPath47">
      <path
         d="M 0,1080 H 1080 V 0 H 0 Z"
         transform="translate(-682.24022,-786.50312)"
         id="path47" />
    </clipPath>
  </defs>
  <sodipodi:namedview
     id="namedview1"
     pagecolor="#ffffff"
     bordercolor="#000000"
     borderopacity="0.25"
     inkscape:showpageshadow="2"
     inkscape:pageopacity="0.0"
     inkscape:pagecheckerboard="0"
     inkscape:deskcolor="#d1d1d1">
    <inkscape:page
       x="0"
       y="0"
       inkscape:label="1"
       id="page1"
       width="1440"
       height="1440"
       margin="392.97333 205.556 391.32935 204.39734"
       bleed="0" />
  </sodipodi:namedview>
  <g
     id="layer-MC0"
     inkscape:groupmode="layer"
     inkscape:label="Layer 8">
    <path
       id="path1"
       d="M 0,0 H 54.983 C 54.256,16.555 43.501,27.914 27.793,27.914 12.326,27.914 1.208,16.193 0,0 m 87.85,-38.668 c -3.868,-25.376 -27.069,-42.414 -59.089,-42.414 -39.877,0 -63.804,25.496 -63.804,66.945 0,41.326 24.168,68.152 62.473,68.152 37.703,0 61.508,-25.497 61.508,-64.89 V -21.629 H -0.361 v -2.176 c 0,-18.488 11.72,-31.177 29.726,-31.177 12.928,0 22.838,6.405 26.101,16.314 z"
       style="fill:#000000;fill-opacity:1;fill-rule:nonzero;stroke:none"
       transform="matrix(1.3333333,0,0,-1.3333333,915.95627,885.422)"
       clip-path="url(#clipPath2)" />
  </g>
  <g
     id="layer-MC1"
     inkscape:groupmode="layer"
     inkscape:label="Layer 7">
    <path
       id="path3"
       d="m 0,0 -24.289,-44.952 h -37.099 l 40.604,64.528 -40.361,65.011 h 39.757 L 1.933,40.843 H 2.657 L 25.618,84.587 H 64.043 L 23.562,20.542 63.682,-44.952 H 25.374 L 0.724,0 Z"
       style="fill:#000000;fill-opacity:1;fill-rule:nonzero;stroke:none"
       transform="matrix(1.3333333,0,0,-1.3333333,1122.5433,928.84707)" />
  </g>
  <g
     id="layer-MC2"
     inkscape:groupmode="layer"
     inkscape:label="Layer 6">
    <path
       id="path4"
       d="m 0,0 c 0,23.442 -11.118,38.545 -28.759,38.545 -17.279,0 -28.64,-15.345 -28.64,-38.545 0,-23.442 11.361,-38.424 28.64,-38.424 C -11.118,-38.424 0,-23.562 0,0 m 36.131,0 c 0,-41.687 -20.06,-66.82 -52.446,-66.82 -18.849,0 -33.351,9.183 -40.237,23.804 h -0.725 v -64.041 H -92.563 V 64.766 h 34.149 L -57.76,42.17 h 0.724 c 7.009,15.225 20.735,24.649 39.464,24.649 32.869,0 53.703,-25.012 53.703,-66.819"
       style="fill:#000000;fill-opacity:1;fill-rule:nonzero;stroke:none"
       transform="matrix(1.3333333,0,0,-1.3333333,505.93427,904.2848)"
       clip-path="url(#clipPath5)" />
    <path
       id="path6"
       d="m 0,0 c 0,0 -14.637,0.379 -36.416,11.944 l -5.107,44.758 1.438,63.984 c 0,0 15.431,9.902 36.677,12.059 8.962,0.91 -30.755,-22.122 -30.755,-22.122 l -6.009,-40.253 1.503,-29.739 z"
       style="fill:#000000;fill-opacity:1;fill-rule:nonzero;stroke:none"
       transform="matrix(1.3333333,0,0,-1.3333333,476.4824,992.9804)"
       clip-path="url(#clipPath7)" />
  </g>
  <g
     id="layer-MC3"
     inkscape:groupmode="layer"
     inkscape:label="Layer 5">
    <path
       id="path8"
       d="m 0,0 c 0,23.442 -11.118,38.545 -28.759,38.545 -17.279,0 -28.64,-15.345 -28.64,-38.545 0,-23.442 11.361,-38.424 28.64,-38.424 C -11.118,-38.424 0,-23.562 0,0 m 36.131,0 c 0,-41.687 -20.06,-66.82 -52.446,-66.82 -18.849,0 -33.351,9.183 -40.237,23.804 h -0.725 v -64.041 H -92.563 V 64.766 h 34.149 L -57.76,42.17 h 0.724 c 7.009,15.225 20.735,24.649 39.464,24.649 32.869,0 53.703,-25.012 53.703,-66.819"
       style="fill:#000000;fill-opacity:1;fill-rule:nonzero;stroke:none"
       transform="matrix(1.3333333,0,0,-1.3333333,712.0176,904.2848)"
       clip-path="url(#clipPath9)" />
    <path
       id="path10"
       d="m 0,0 c 0,0 -14.637,0.379 -36.416,11.944 l -5.107,44.758 1.438,63.984 c 0,0 15.431,9.902 36.677,12.059 8.962,0.91 -30.755,-22.122 -30.755,-22.122 l -6.009,-40.253 1.503,-29.739 z"
       style="fill:#000000;fill-opacity:1;fill-rule:nonzero;stroke:none"
       transform="matrix(1.3333333,0,0,-1.3333333,682.56587,992.9804)"
       clip-path="url(#clipPath11)" />
  </g>
  <g
     id="layer-MC4"
     inkscape:groupmode="layer"
     inkscape:label="Layer 4">
    <path
       id="path12"
       d="M 0,0 V 9.425 L -27.31,7.734 C -40.481,6.766 -47.974,0.845 -47.974,-8.338 c 0,-9.667 7.977,-15.709 19.94,-15.709 C -12.687,-24.047 0,-14.017 0,0 m -83.017,-10.272 c 0,23.563 18.127,37.218 50.39,39.152 L 0,30.813 v 8.58 c 0,12.084 -8.458,19.092 -21.752,19.092 -13.171,0 -21.509,-6.525 -23.201,-16.071 h -32.263 c 1.329,25.134 22.717,42.414 57.036,42.414 33.231,0 54.86,-17.159 54.86,-43.261 V -47.49 H 0.604 v 19.818 H -0.12 c -7.25,-13.776 -23.322,-21.872 -39.516,-21.872 -24.65,0 -43.381,15.951 -43.381,39.272"
       style="fill:#000000;fill-opacity:1;fill-rule:nonzero;stroke:none"
       transform="matrix(1.3333333,0,0,-1.3333333,315.0864,927.72573)"
       clip-path="url(#clipPath13)" />
    <path
       id="path14"
       d="M 0,0 C 0,0 -20.576,-14.236 -31.107,-15.375 -41.638,-16.515 1.421,9.661 1.421,9.661 Z"
       style="fill:#000000;fill-opacity:1;fill-rule:nonzero;stroke:none"
       transform="matrix(1.3333333,0,0,-1.3333333,317.75533,971.7648)"
       clip-path="url(#clipPath15)" />
  </g>
  <g
     id="layer-MC5"
     inkscape:groupmode="layer"
     inkscape:label="Layer 3">
    <path
       id="path16"
       d="M 0,0 H 34.686 V -157.73 H 22.196 C 9.937,-157.73 0,-147.793 0,-135.535 Z"
       style="fill:#000000;fill-opacity:1;fill-rule:nonzero;stroke:none"
       transform="matrix(1.3333333,0,0,-1.3333333,789.35547,780.07413)"
       clip-path="url(#clipPath17)" />
    <path
       id="path18"
       d="m 0,0 h -16.18 v 30.211 c 0,0 5.172,-8.709 16.18,-7.222 z"
       style="fill:#000000;fill-opacity:1;fill-rule:nonzero;stroke:none"
       transform="matrix(1.3333333,0,0,-1.3333333,854.98,990.3812)"
       clip-path="url(#clipPath19)" />
  </g>
  <g
     id="layer-MC6"
     inkscape:groupmode="layer"
     inkscape:label="Layer 12">
    <path
       id="path20"
       d="m 0,0 c -28.635,26.998 -60.733,48.731 -98.471,61.019 -51.666,16.824 -105.208,17.64 -157.286,2.247 -31.838,-9.411 -63.48,-26.433 -95.408,-33.592 -53.127,-11.911 -96.912,20.932 -145.827,34.823 -69.099,19.624 -145.204,-0.521 -202.313,-41.683 L -728.99,0.01 c 36.216,59.491 100.562,98.449 169.627,106.862 69.095,8.417 102.056,-16.903 163.156,-32.589 36.292,-9.316 71.192,12.139 105.697,22.736 96.934,29.772 210.19,12.309 274.478,-71.561 C -9.974,17.555 -4.152,9.055 0,0"
       style="fill:#000000;fill-opacity:1;fill-rule:nonzero;stroke:none"
       transform="matrix(1.3333333,0,0,-1.3333333,1194.9669,788.67027)"
       clip-path="url(#clipPath21)" />
  </g>
  <g
     id="layer-MC7"
     inkscape:groupmode="layer"
     inkscape:label="Layer 11">
    <path
       id="path22"
       d="m 0,0 c 9.492,-84.987 -57.334,-172.692 -139.977,-190.535 -6.233,-1.345 -32.802,-4.486 -37.039,-1.982 -3.827,2.261 -2.531,25.075 -1.977,29.999 5.49,48.815 38.307,97.248 77.673,125.326 C -72.224,-16.439 -36.126,-0.817 0,0"
       style="fill:#000000;fill-opacity:1;fill-rule:nonzero;stroke:none"
       transform="matrix(1.3333333,0,0,-1.3333333,909.6536,391.3292)"
       clip-path="url(#clipPath23)" />
  </g>
  <g
     id="layer-MC8"
     inkscape:groupmode="layer"
     inkscape:label="Layer 9">
    <path
       id="path24"
       d="M 0,0 H 54.983 C 54.256,16.555 43.501,27.914 27.793,27.914 12.326,27.914 1.208,16.193 0,0 m 87.85,-38.668 c -3.868,-25.376 -27.069,-42.414 -59.089,-42.414 -39.877,0 -63.804,25.496 -63.804,66.945 0,41.326 24.168,68.152 62.473,68.152 37.703,0 61.508,-25.497 61.508,-64.89 V -21.629 H -0.361 v -2.176 c 0,-18.488 11.72,-31.177 29.726,-31.177 12.928,0 22.838,6.405 26.101,16.314 z"
       style="fill:#000000;fill-opacity:1;fill-rule:nonzero;stroke:none"
       transform="matrix(1.3333333,0,0,-1.3333333,915.95627,885.422)"
       clip-path="url(#clipPath25)" />
    <path
       id="path26"
       d="m 0,0 -24.289,-44.952 h -37.099 l 40.604,64.528 -40.361,65.011 h 39.757 L 1.933,40.843 H 2.657 L 25.618,84.587 H 64.043 L 23.562,20.542 63.682,-44.952 H 25.374 L 0.724,0 Z"
       style="fill:#000000;fill-opacity:1;fill-rule:nonzero;stroke:none"
       transform="matrix(1.3333333,0,0,-1.3333333,1122.5433,928.84707)"
       clip-path="url(#clipPath27)" />
    <path
       id="path28"
       d="m 0,0 c 0,23.442 -11.118,38.545 -28.759,38.545 -17.279,0 -28.64,-15.345 -28.64,-38.545 0,-23.442 11.361,-38.424 28.64,-38.424 C -11.118,-38.424 0,-23.562 0,0 m 36.131,0 c 0,-41.687 -20.06,-66.82 -52.446,-66.82 -18.849,0 -33.351,9.183 -40.237,23.804 h -0.725 v -64.041 H -92.563 V 64.766 h 34.149 L -57.76,42.17 h 0.724 c 7.009,15.225 20.735,24.649 39.464,24.649 32.869,0 53.703,-25.012 53.703,-66.819"
       style="fill:#000000;fill-opacity:1;fill-rule:nonzero;stroke:none"
       transform="matrix(1.3333333,0,0,-1.3333333,505.93427,904.2848)"
       clip-path="url(#clipPath29)" />
    <path
       id="path30"
       d="m 0,0 c 0,0 -14.637,0.379 -36.416,11.944 l -5.107,44.758 1.438,63.984 c 0,0 15.431,9.902 36.677,12.059 8.962,0.91 -30.755,-22.122 -30.755,-22.122 l -6.009,-40.253 1.503,-29.739 z"
       style="fill:#000000;fill-opacity:1;fill-rule:nonzero;stroke:none"
       transform="matrix(1.3333333,0,0,-1.3333333,476.4824,992.9804)"
       clip-path="url(#clipPath31)" />
    <path
       id="path32"
       d="m 0,0 c 0,23.442 -11.118,38.545 -28.759,38.545 -17.279,0 -28.64,-15.345 -28.64,-38.545 0,-23.442 11.361,-38.424 28.64,-38.424 C -11.118,-38.424 0,-23.562 0,0 m 36.131,0 c 0,-41.687 -20.06,-66.82 -52.446,-66.82 -18.849,0 -33.351,9.183 -40.237,23.804 h -0.725 v -64.041 H -92.563 V 64.766 h 34.149 L -57.76,42.17 h 0.724 c 7.009,15.225 20.735,24.649 39.464,24.649 32.869,0 53.703,-25.012 53.703,-66.819"
       style="fill:#000000;fill-opacity:1;fill-rule:nonzero;stroke:none"
       transform="matrix(1.3333333,0,0,-1.3333333,712.0176,904.2848)"
       clip-path="url(#clipPath33)" />
    <path
       id="path34"
       d="m 0,0 c 0,0 -14.637,0.379 -36.416,11.944 l -5.107,44.758 1.438,63.984 c 0,0 15.431,9.902 36.677,12.059 8.962,0.91 -30.755,-22.122 -30.755,-22.122 l -6.009,-40.253 1.503,-29.739 z"
       style="fill:#000000;fill-opacity:1;fill-rule:nonzero;stroke:none"
       transform="matrix(1.3333333,0,0,-1.3333333,682.56587,992.9804)"
       clip-path="url(#clipPath35)" />
    <path
       id="path36"
       d="M 0,0 V 9.425 L -27.31,7.734 C -40.481,6.766 -47.974,0.845 -47.974,-8.338 c 0,-9.667 7.977,-15.709 19.94,-15.709 C -12.687,-24.047 0,-14.017 0,0 m -83.017,-10.272 c 0,23.563 18.127,37.218 50.39,39.152 L 0,30.813 v 8.58 c 0,12.084 -8.458,19.092 -21.752,19.092 -13.171,0 -21.509,-6.525 -23.201,-16.071 h -32.263 c 1.329,25.134 22.717,42.414 57.036,42.414 33.231,0 54.86,-17.159 54.86,-43.261 V -47.49 H 0.604 v 19.818 H -0.12 c -7.25,-13.776 -23.322,-21.872 -39.516,-21.872 -24.65,0 -43.381,15.951 -43.381,39.272"
       style="fill:#000000;fill-opacity:1;fill-rule:nonzero;stroke:none"
       transform="matrix(1.3333333,0,0,-1.3333333,315.0864,927.72573)"
       clip-path="url(#clipPath37)" />
    <path
       id="path38"
       d="M 0,0 C 0,0 -20.576,-14.236 -31.107,-15.375 -41.638,-16.515 1.421,9.661 1.421,9.661 Z"
       style="fill:#000000;fill-opacity:1;fill-rule:nonzero;stroke:none"
       transform="matrix(1.3333333,0,0,-1.3333333,317.75533,971.7648)"
       clip-path="url(#clipPath39)" />
    <path
       id="path40"
       d="M 0,0 H 34.686 V -157.73 H 22.196 C 9.937,-157.73 0,-147.793 0,-135.535 Z"
       style="fill:#000000;fill-opacity:1;fill-rule:nonzero;stroke:none"
       transform="matrix(1.3333333,0,0,-1.3333333,789.35547,780.07413)"
       clip-path="url(#clipPath41)" />
    <path
       id="path42"
       d="m 0,0 h -16.18 v 30.211 c 0,0 5.172,-8.709 16.18,-7.222 z"
       style="fill:#000000;fill-opacity:1;fill-rule:nonzero;stroke:none"
       transform="matrix(1.3333333,0,0,-1.3333333,854.98,990.3812)"
       clip-path="url(#clipPath43)" />
    <path
       id="path44"
       d="m 0,0 c -28.635,26.998 -60.733,48.731 -98.471,61.019 -51.666,16.824 -105.208,17.64 -157.286,2.247 -31.838,-9.411 -63.48,-26.433 -95.408,-33.592 -53.127,-11.911 -96.912,20.932 -145.827,34.823 -69.099,19.624 -145.204,-0.521 -202.313,-41.683 L -728.99,0.01 c 36.216,59.491 100.562,98.449 169.627,106.862 69.095,8.417 102.056,-16.903 163.156,-32.589 36.292,-9.316 71.192,12.139 105.697,22.736 96.934,29.772 210.19,12.309 274.478,-71.561 C -9.974,17.555 -4.152,9.055 0,0"
       style="fill:#000000;fill-opacity:1;fill-rule:nonzero;stroke:none"
       transform="matrix(1.3333333,0,0,-1.3333333,1194.9669,788.67027)"
       clip-path="url(#clipPath45)" />
    <path
       id="path46"
       d="m 0,0 c 9.492,-84.987 -57.334,-172.692 -139.977,-190.535 -6.233,-1.345 -32.802,-4.486 -37.039,-1.982 -3.827,2.261 -2.531,25.075 -1.977,29.999 5.49,48.815 38.307,97.248 77.673,125.326 C -72.224,-16.439 -36.126,-0.817 0,0"
       style="fill:#000000;fill-opacity:1;fill-rule:nonzero;stroke:none"
       transform="matrix(1.3333333,0,0,-1.3333333,909.6536,391.3292)"
       clip-path="url(#clipPath47)" />
    <path
       id="path48"
       d="M 8.9067375,-1.7231281 H 14.836425 V -26.051253 h 8.097656 v -4.488281 H 0.87939375 v 4.488281 H 8.9067375 Z m 17.8564455,0 h 5.167969 V -23.320784 h 0.128906 l 6.761719,21.5976559 h 4.664062 l 6.84375,-21.5507809 h 0.128906 v 21.5507809 h 5.882813 V -30.539534 h -8.15625 l -6.46875,20.496093 H 41.587402 L 35.03662,-30.539534 h -8.273437 z m 0,0"
       style="fill:#000000;fill-opacity:1;fill-rule:nonzero;stroke:none"
       aria-label="TM"
       transform="matrix(1.3333333,0,0,1.3333333,1155.4056,700.64907)" />
  </g>
</svg>
