<svg xmlns="http://www.w3.org/2000/svg" viewBox="0 0 32 32" fill="none">
  <rect width="32" height="32" rx="8" fill="#1E2D4A"/>
  <rect x="6" y="9" width="14" height="16" rx="3" fill="#FFB233" stroke="#1E2D4A" stroke-width="1"/>
  <path d="M9 8 V6.5 C9 5 10.5 4 12 4 C13.5 4 15 5 15 6.5 V8" stroke="#1E2D4A" stroke-width="1.2" fill="none"/>
  <path d="M7 24 L7 17 C7 15 9 14.5 10.5 15.5 L11 16 V13 C11 11.5 13 11 14.5 12.5 L15 13.5 V11 C15 9.5 17 9 18.5 10.5 L19 11.5 V9.5 C19 8 21.5 7.5 23 9 L23 24 Z" fill="#fff" stroke="#1E2D4A" stroke-width="0.8"/>
</svg>
