<?xml version="1.0" encoding="UTF-8"?>
<svg id="Layer_1" data-name="Layer 1" xmlns="http://www.w3.org/2000/svg" viewBox="0 0 403.12 490.57">
  <path d="M282.77.02l1.37-.02,16.05,11.86-23.11,34.49c37.47,24.76,60.44,64.96,62.3,110.31,14.17-7.41,30.19-7.68,44.1,1.17,11.5,7.31,19.64,20.5,19.64,35.84l-.02,116.64c0,15.43-8.47,28.87-20.28,36.08-13.73,8.38-29.81,8.11-43.36.6l-.03,16.18c-.04,17.68-14.1,31.84-31.77,31.88l-10.56.02-.11,53.38c-.05,23.66-19.53,42.19-42.54,42.12s-42.09-18.19-42.15-41.43l-.15-54.02-21.16-.04-.1,53.36c-.04,23.41-19.08,41.85-41.87,42.1-22.62.25-42.69-17.71-42.77-41.13l-.17-54.29h-10.28c-17.5-.02-31.8-13.64-32.06-31.26l-.25-16.64c-14.53,7.68-30.44,7.25-44.13-1.46C7.54,338.24.02,324.8.02,309.38L0,194.62c0-15.69,7.66-29.42,19.84-36.95,13.52-8.36,29.53-8.7,43.88-.93,1.8-44.62,24.39-85.25,62-110.17l-23.06-34.48L120.26.41l24.21,35.83c36.79-16.66,77.64-16.28,113.95-.25L282.77.02ZM317.73,151.08c-6.07-62.55-58.33-106.77-117.79-106-59.31.77-109.27,46.51-114.56,106.06l232.35-.06ZM63.18,312.87v-122.16c0-11.56-12.26-19.05-22.23-18.27-10.84.84-19.72,9.57-19.72,21.15l.02,116.81c0,11.49,9.05,20.22,19.72,20.98,9.89.7,22.22-6.54,22.22-18.5ZM233.41,373.89v74.53c.27,12.17,10.05,21.18,21.87,20.88,10.75-.28,20.5-9.15,20.51-20.93l.06-74.5,31.8.02c6.34-.29,11-5.11,10.58-11.84l-.05-189.68H84.94s-.08,188.69-.08,188.69c-.66,7.32,3.95,12.68,10.97,12.84l31.48-.02.05,74.55c0,12.16,10.36,21.19,21.62,20.92s20.96-9.73,20.75-21.89v-73.58s63.67.03,63.67.03ZM381.91,309.6l-.06-116.55c0-11.54-9.58-20.18-20.21-20.66-10.23-.47-21.82,7.34-21.82,18.88l-.08,120.5c0,11.79,11.18,20.17,21.85,19.63,11.32-.58,20.33-9.42,20.32-21.79Z"/>
  <rect x="137.88" y="98.12" width="21.25" height="21.18" transform="translate(39.74 257.17) rotate(-89.98)"/>
  <rect x="244.01" y="98.08" width="21.21" height="21.25"/>
</svg>