<svg xmlns="http://www.w3.org/2000/svg" xmlns:xlink="http://www.w3.org/1999/xlink" preserveAspectRatio="xMidYMid" width="629" height="800" viewBox="0 0 629 800">
  <defs>
    <style>
      .cls-1 {
        fill: #000;
        fill-rule: evenodd;
      }
    </style>
  </defs>
  <path d="M628.850,593.109 C589.432,700.340 513.581,768.033 505.278,775.217 C487.476,793.600 466.410,800.049 446.157,800.049 C419.455,800.049 394.176,788.820 379.698,778.909 C340.479,751.044 278.661,774.834 269.424,778.649 C216.094,815.000 169.429,793.217 151.182,775.783 C83.543,725.631 26.384,591.730 23.978,586.031 C-58.000,331.466 99.507,237.118 114.368,228.907 C190.279,178.539 285.694,228.785 314.419,246.217 C382.272,207.093 444.870,194.486 500.544,208.732 C570.741,226.701 603.971,280.975 607.525,287.103 L615.829,301.395 L600.937,308.579 C551.024,332.691 520.031,381.711 520.031,436.521 C520.031,498.133 559.818,552.391 619.061,571.540 L628.850,574.711 L630.000,589.984 L628.850,593.109 ZM489.406,436.521 C489.406,375.844 520.567,321.018 571.844,289.600 C559.220,274.051 533.421,248.760 492.945,238.405 C443.262,225.675 385.750,238.772 322.018,277.299 L313.561,282.400 L305.395,276.793 C304.384,276.104 202.045,206.925 130.852,254.719 L129.167,255.715 C122.917,258.886 -24.065,336.889 52.658,575.370 C52.734,575.416 108.960,707.079 170.133,751.688 L171.941,753.235 C175.296,756.467 206.963,784.868 253.214,752.591 L255.712,751.182 C257.934,750.187 292.680,734.883 332.190,734.883 C353.960,734.883 377.170,739.525 397.209,753.771 C399.093,755.027 450.033,788.774 483.631,753.495 L484.810,752.377 C485.561,751.749 555.850,691.210 595.146,595.299 C531.307,568.323 489.406,506.313 489.406,436.521 ZM310.666,210.678 L293.262,211.858 L294.334,194.455 C304.997,20.634 460.482,1.899 462.060,1.731 L478.145,0.000 L478.988,16.161 C488.548,196.508 312.442,210.555 310.666,210.678 ZM326.798,177.314 C364.209,169.455 445.713,140.319 448.639,35.570 C414.874,44.501 341.045,75.521 326.798,177.314 Z" class="cls-1"/>
</svg>
