<?xml version="1.0" encoding="UTF-8"?>
<svg id="Layer_1" data-name="Layer 1" xmlns="http://www.w3.org/2000/svg" viewBox="0 0 336.04 336.06">
  <path d="M287.77,336.04l-23.77-.02c-19.88-.02-35.86-16.11-35.94-35.92l-.05-12.02c-6.73-.28-11.97-5.27-11.96-12.06l.07-84.69c.02-28.3,20.21-52.23,47.9-58.09v-67.16c-.02-23.43-18.82-41.78-41.64-42-22.49-.22-42.24,17.83-42.26,41.31l-.16,205.27c-.03,36.42-30.08,65.24-65.56,65.4-35.9.16-66.28-28.65-66.31-65.34l-.06-67.89C19.52,196.82-.02,172.16,0,143.24L.06,60.07c0-6.81,5.14-11.79,12-12.05l-.07-11.22C11.88,16.18,28.18-.11,48.8,0l24.04.13c19.61.11,35.09,16.39,35.18,35.84l.06,12.05c6.72.25,11.96,5.25,11.95,12.05l-.08,84.68c-.03,28.3-20.19,52.27-47.9,58.07v67.19c0,23.43,18.9,41.8,41.62,42,23.01.2,42.35-18.33,42.35-42.07V66.18C156.04,29.45,185.67.23,221.7.03c35.83-.2,66.21,28.62,66.28,65.35l.13,67.87c26.95,5.71,47.65,28.83,47.72,56.57l.22,86.19c.02,6.81-5.23,11.8-12,12.06l.05,11.25c.1,20.11-15.66,36.73-36.32,36.72ZM84,48.04l.1-11.25c.07-7.49-5.38-12.83-12.8-12.8l-23.26.08c-7.15.02-12.12,5.75-12.06,12.68l.1,11.3h47.92ZM96.04,143.72v-71.68s-72,0-72,0v72.75c.55,20.01,16.95,35.44,36.39,35.22,19.42-.22,35.59-15.85,35.62-36.29ZM312.06,264.03l-.04-71.97c-.01-20.36-16.61-36.18-36.34-35.99-19.38.19-35.61,15.92-35.62,35.99l-.03,71.99,72.03-.02ZM287.74,312.04c7.47-.02,12.42-5.74,12.36-12.72l-.09-11.28h-47.96s0,12,0,12c0,7.19,5.8,12.06,12.69,12.04l22.99-.05Z"/>
</svg>