<?xml version="1.0" encoding="UTF-8"?>
<svg id="Layer_1" data-name="Layer 1" xmlns="http://www.w3.org/2000/svg" viewBox="0 0 512 512">
  <defs>
    <style>
      .cls-1 {
        fill: #fff;
      }
    </style>
  </defs>
  <path d="M269.19,35l4.01.72c110.49,8.19,198.91,96.6,207.09,207.09l.72,4.01v26.37l-.71,4.02c-8.28,110.1-96.02,199.03-206.21,207.03l-4.9.77h-16.7c-4.32-1.67-7.58-3.79-11.25-7.46L38.47,274.75c-3.67-3.67-5.79-6.93-7.47-11.24l.35-16.57c3.16-54.54,25.87-105.96,64.67-145.13,7.38-7.45,18.35-8.37,26.22-.5l71.41,71.48c7.36,7.37,6.9,18.3-.22,25.56-14.55,14.81-23.29,33.79-25.01,54.66l94.58,94.59c20.86-1.71,39.81-10.5,54.66-25.01,7.18-7.19,18.22-7.55,25.52-.25l58.86,58.79c54.67-65.62,58.44-160.59,9.3-229.96-35.8-50.55-93.01-81.08-155.37-80.94-9.6-.38-16.71-7.21-17.46-16.31-.72-8.85,5.28-16.7,13.96-18.91h16.7ZM257.39,383.03c-5.67.09-9.51-1.54-13.48-4.8l-106.13-106.14c-3.48-4.2-5.04-8.48-4.78-13.89.53-26.15,8.74-51.04,24.55-71.84l-47.61-47.44c-26.51,31.61-41.97,71.71-43.57,113.99l196.73,196.73c42.15-1.6,82.01-16.87,114.02-43.55l-47.47-47.63c-20.79,15.78-45.58,24.06-72.25,24.57Z"/>
  <g>
    <path class="cls-1" d="M252,512H0v-252c1.91,4.9,4.32,8.62,8.5,12.79l230.71,230.73c4.17,4.17,7.88,6.59,12.8,8.49Z"/>
    <path class="cls-1" d="M512,271v241h-241s5.57-.88,5.57-.88c125.37-9.1,225.2-110.28,234.62-235.55l.8-4.57Z"/>
    <path class="cls-1" d="M271,0h241v241l-.81-4.56C501.87,110.72,401.28,10.14,275.56.82l-4.56-.82Z"/>
  </g>
</svg>