<?xml version="1.0" encoding="UTF-8"?>
<svg id="Layer_1" data-name="Layer 1" xmlns="http://www.w3.org/2000/svg" viewBox="0 0 272.23 272.03">
  <path d="M207.77,257.25l-7.32-131.15-37.83-10.75c-10.85-3.08-18.33-11.88-18.53-23.42l.06-56.14c.01-10.63,7.03-19.43,16.86-22.63L206.96,0c38.71-.58,67.88,32.08,65.09,70.36l-5.13,70.42-10.25,117.2c-.72,8.23-8.13,13.99-15.92,13.99l-16.75.02c-7.98,0-15.71-5.68-16.22-14.75ZM165.98,99.61l43.32,12.39c26.37-.75,46.94-22.43,46.82-48.2s-20.74-47.23-46.99-47.79l-43.23,12.4c-3.72,1.07-5.78,4.29-5.78,8.09l.02,55.49c0,3.46,2.23,6.59,5.84,7.62ZM223.68,255.97l17.04.05,11.65-145.76c-10.72,9.46-22.34,15.15-35.87,16.84l7.18,128.88Z"/>
  <path d="M71.82,126.11l-7.29,130.78c-.48,8.67-7.53,15.03-15.84,15.07l-16.66.08c-8.23.04-15.68-5.73-16.44-14.39l-10.45-119.06L.19,71.09C-2.65,32.3,26.53-.9,65.72.08l44.14,12.67c10.45,2.75,18.2,11.87,18.21,22.99l.07,56.26c-.33,10.88-7.08,20.05-17.55,23.04l-38.77,11.07ZM112.1,35.6c0-3.68-2.98-6.31-5.8-7.26l-43.4-12.37c-26.45.88-46.95,22.56-46.69,48.56.26,25.59,20.96,47.02,47.08,47.41l43.17-12.37c3.25-1.2,5.68-4.05,5.68-7.66l-.04-56.31ZM48.54,256l7.24-128.93c-13.84-1.69-25.42-7.67-35.87-16.82l11.64,145.74h17Z"/>
</svg>