<?xml version="1.0" encoding="UTF-8"?>
<svg id="Layer_1" data-name="Layer 1" xmlns="http://www.w3.org/2000/svg" viewBox="0 0 264.7 312.69">
  <path d="M264.36,108.22v144.03c1.83,16.84-3.85,32.61-15.18,44.3-11.65,11.65-27.63,17.67-44.67,15.79H60.67c-16.99,1.85-32.99-3.77-44.79-15.51-11.54-11.52-17.47-27.7-15.51-44.67V60.52c-1.92-16.67,3.8-32.9,15.11-44.15C27.1,3.79,42.97-.08,59.91,0l97.39.44c2.82.01,5.77,1.59,7.77,3.59l95.84,95.85c2.04,2.04,3.44,4.94,3.45,8.34ZM206.35,288.33c5.84,0,10.48-.98,15.25-2.46,13.86-4.3,18.75-17.66,18.75-32.14l.02-133.41-36.49.29c-16.94,1.05-32.71-4.26-44.43-16.16-11.51-11.69-16.51-27.46-15.37-44.25l.31-35.89-85.97.03c-5.25,0-10.19.87-14.97,2.31-13.8,4.15-19.08,17.18-19.08,31.59v196.17c0,14.39,5.31,27.46,19.07,31.58,4.84,1.45,9.63,2.33,15.04,2.33h147.86ZM187.71,94.22c5.13,1.22,10.3,2.15,15.35,2.13l20.29-.09-54.82-54.81-.17,20.42c-.05,5.79,1.07,11.51,2.73,16.89,3.03,7.57,8.56,12.8,16.61,15.46Z"/>
  <path d="M137.42,263.44c-17.63,5.64-64.82-25.92-64.96-72.58l-.09-31.55c-.02-5.48,3.33-10.3,8.68-11.77,16.02-4.39,31.11-10.23,45.84-17.81,3.85-1.98,8.07-1.65,11.79.3,14.31,7.54,29.15,12.77,44.79,16.65,5.51,1.37,8.91,6.45,8.91,11.88l-.03,30.07c-.03,34.32-22.14,64.33-54.93,74.81ZM168.42,186.85l-.18-19.48c-12.48-3.5-24.02-7.85-35.79-13.53-11.9,5.5-23.64,10.23-36.09,14.15v22.15c.86,22.43,15.22,41.82,36.05,49.37,22.13-8.23,36.22-28.87,36-52.66Z"/>
</svg>