<?xml version="1.0" encoding="UTF-8"?>
<svg id="Layer_1" data-name="Layer 1" xmlns="http://www.w3.org/2000/svg" viewBox="0 0 38.95 37.41">
  <path d="M38.65,33.36c.47.88.37,1.95-.16,2.77-.5.77-1.35,1.28-2.38,1.28H2.84c-1.05,0-1.92-.54-2.42-1.33-.58-.92-.54-1.97-.04-2.91l2.45-4.54c-1.49-.7-2.43-2.1-2.43-3.76V4.18C.41,1.84,2.24,0,4.58,0h29.78c2.28,0,4.17,1.77,4.17,4.09v20.88c0,1.62-1,2.98-2.42,3.66l2.54,4.73ZM36.29,4.13c0-1.05-.82-1.87-1.82-1.87h-13.35c-.03,1.01-.8,1.66-1.68,1.64s-1.57-.71-1.61-1.64H4.67c-1.15,0-2.02.74-2.02,1.93v20.69c0,1.02.8,1.87,1.83,1.87h29.97c1.03,0,1.83-.85,1.83-1.87V4.13ZM25.32,31.45c.31.06.54.23.63.46l1.27,3.24h8.95c.16,0,.41-.16.47-.28s.08-.39,0-.53l-2.89-5.35H5.2s-2.83,5.23-2.83,5.23c-.11.21-.15.49-.06.65s.35.28.56.28h8.85s1.24-3.17,1.24-3.17c.1-.26.31-.46.61-.53h11.74Z"/>
  <path d="M25.89,23.95h-12.79c-.66,0-1.11-.51-1.13-1.09s.44-1.16,1.13-1.16h12.73c.65,0,1.1.51,1.13,1.08.02.54-.37,1.17-1.08,1.17Z"/>
</svg>