<?xml version="1.0" encoding="UTF-8"?>
<svg id="Layer_1" data-name="Layer 1" xmlns="http://www.w3.org/2000/svg" viewBox="0 0 15 21">
  <path d="M12.82,20.99H2.25C1.04,21,0,20.02,0,18.79V2.21C0,.95,1.07,0,2.3,0h10.4c1.3,0,2.31,1.01,2.31,2.31v16.39c0,1.2-.91,2.29-2.18,2.29ZM12.62,16.5c.35,0,.59.05.88.13V2.21c0-.41-.37-.71-.76-.71H2.2c-.37,0-.71.34-.71.71v14.42c.25-.07.48-.13.76-.13h10.36ZM12.76,19.5c.46,0,.74-.4.73-.77s-.32-.73-.75-.73H2.25c-.45,0-.77.37-.75.77s.32.73.75.73h10.51Z"/>
  <path d="M8.19,12.29c-.2.4-.62.55-.98.39-.35-.14-.6-.59-.41-.97l.98-1.97h-1.78c-.27,0-.51-.15-.63-.33-.15-.24-.17-.51-.04-.76l1.54-3.05c.18-.36.68-.43.99-.27.34.19.5.63.31,1l-.96,1.91h1.8c.27,0,.5.16.63.34.16.24.15.52.02.78l-1.46,2.92Z"/>
</svg>