<?xml version="1.0" encoding="UTF-8"?>
<svg id="Layer_1" data-name="Layer 1" xmlns="http://www.w3.org/2000/svg" viewBox="0 0 24 24">
  <path d="M1.5,15.73v-2.24c0-.42.34-.74.73-.75.41-.01.77.31.77.75v2.3c0,.46.49.79.89.68.36-.92,1.2-1.49,2.13-1.48s1.75.59,2.09,1.5h5.38s0-9.79,0-9.79c0-.4-.37-.71-.74-.71h-2.26c-.43,0-.76-.37-.75-.77.01-.42.36-.73.79-.73h2.16c1.26,0,2.28.98,2.3,2.25h2.24c2.9,0,5.25,2.35,5.26,5.26v3.69c0,1.32-1.06,2.36-2.38,2.3-.34.91-1.16,1.49-2.09,1.5s-1.8-.58-2.14-1.5h-7.77c-.34.9-1.17,1.49-2.09,1.5s-1.79-.58-2.14-1.5c-1.29.06-2.38-.94-2.38-2.27ZM21,15.73v-3.73c0-2.08-1.68-3.75-3.75-3.75h-2.25s0,8.25,0,8.25h.88c.34-.92,1.19-1.51,2.14-1.5s1.76.59,2.09,1.49c.47.07.89-.26.89-.76ZM6.75,17.25c0-.41-.34-.75-.75-.75s-.75.34-.75.75.34.75.75.75.75-.34.75-.75ZM18.75,17.25c0-.41-.34-.75-.75-.75s-.75.34-.75.75.34.75.75.75.75-.34.75-.75Z"/>
  <path d="M9.58,11.54c.3.3.19.79-.08,1.03-.3.25-.74.26-1.03-.03l-1.16-1.15c-1.63,1.07-3.76.72-4.97-.76s-1.1-3.65.24-5.01,3.51-1.49,5-.29,1.86,3.35.79,5l1.2,1.22ZM7.5,8.25c0-1.24-1.01-2.25-2.25-2.25s-2.25,1.01-2.25,2.25,1.01,2.25,2.25,2.25,2.25-1.01,2.25-2.25Z"/>
</svg>