<?xml version="1.0" encoding="UTF-8"?>
<svg id="Layer_1" data-name="Layer 1" xmlns="http://www.w3.org/2000/svg" viewBox="0 0 295.05 384">
  <path d="M188.03,0c15.4,2.38,26.55,15.45,26.53,31.53l-.06,54.79c5.94-3.61,12.08-5.87,18.54-3.73,8.34,2.76,14.43,11.25,14.67,20.09.18,6.79.71,13.01,2.74,19.33,1.32,4.11,4.12,6.61,7.19,9.47,12.14,11.28,20.65,45,22.72,62.68,2.01,17.13-.27,33.6-2.78,50.57-.31,21.36,5.95,41.77,16.4,60.29,2.36,4.18.6,8.89-3.33,11.01-3.71,2-8.74.82-11.09-3.48-11.44-20.99-19.26-44.43-17.85-68.75.89-15.34,4.55-29.64,2.93-45.06-1.47-14.07-9.58-47.56-17.29-54.68-3.99-3.68-7.65-6.9-10.04-11.86-8.43-17.53-3.2-32.09-8.9-33.88-1.67-.52-4.84,1.49-6.15,2.64-8.3,12.83-9.24,28.06-3.19,42.02,2.48,5.09,5.45,9.81,8.96,14.23,3.15,3.98,2.23,8.87-1.44,11.6-3.96,2.94-8.74,2.13-12.08-2.44v100.6c.02,17.15-13.34,31.13-30.6,31.16l-75.12.09c3.21,6.94,7.88,12.1,13.39,16.65,5.17,4.27,10.9,7,16.75,10.35,10.7,6.14,19.61,14.88,26.65,24.88,7.31,10.39,13.27,30.1,2.01,33.91h-4.32c-4.05-1.86-5.9-5.06-5.79-9.8.31-13.43-15.57-28.94-27.64-35.46-17.93-9.69-31.81-20.53-38.32-40.54l-21.51-.12c-17.39-.1-30.13-14.7-30.09-31.79l.08-35.57-16.11-7.36c-7.9-3.61-11.19-12.37-8.93-20.58,2.5-9.05,10.35-14.21,19.54-13.41l-12.65-5.96c-8.35-3.98-11.99-12.98-9.7-21.86s8.57-14.72,17.36-16.36c-12.24-4.05-16.99-15.6-12.37-26.61,3.8-9.05,12.35-14.91,22.69-12.38l.18-4.85-29.28-15.46C.55,80.51-2.9,69.3,2.61,58.93c4.53-8.51,14.45-13.86,23.86-9.84,4.51,1.93,8.51,4.17,13.5,6.66l-.07-22.75c-.05-16.34,10.15-30.04,25.88-33h122.25ZM56.32,248.01l142.03.05V30.89c0-8.48-6.6-14.72-14.78-14.72h-20.27s-5.23,15.41-5.23,15.41c-1.1,3.23-4.72,6.6-8.29,6.6h-44.99c-3.96,0-7.37-3.57-8.56-7.11l-5-14.93-20.95.1c-8.48.04-14.14,7.13-14.14,15.28l.03,81.51,14.62,6.44c8.8,3.39,13.62,12.05,12,21.37-1.61,9.31-8.11,16.09-18.23,17.61,11.12,3.4,16.88,13.98,13.58,24.96-2.9,9.64-11.11,15.49-21.79,14.67l6.26,3.13c8.84,3.18,13.02,12.36,10.42,21.26-2.26,7.75-8.33,13.18-16.87,13.42l.13,12.13ZM138.82,281.85c5.75-.44,8.48-6.19,8.42-10.71s-2.88-10.1-8.23-10.5c-7.56-.56-15.22-.54-22.84-.15-5.65.29-8.81,5.77-8.89,10.65s3.14,10.49,8.8,10.8c7.42.41,14.97.49,22.74-.1Z"/>
</svg>