<?xml version="1.0" encoding="UTF-8"?>
<svg id="Layer_1" data-name="Layer 1" xmlns="http://www.w3.org/2000/svg" viewBox="0 0 223.58 319.99">
  <path d="M175.7,304.4c-.03,9.06-6.49,15.36-15.29,15.59H63.1c-9.27-.2-15.32-7.05-15.35-16.03l-.09-33.99C20.62,262.53-.02,238.63,0,210.2l.07-101.16c.02-28.18,20.87-51.68,47.59-59.01l.17-34.77c.04-8.68,6.49-15.08,15.26-15.25h97.33c9.29.13,15.32,7.04,15.34,16.02l.06,34c27.49,7.41,47.78,31.82,47.78,60.5v98.94c0,28.67-20.3,53.08-47.77,60.5l-.11,34.45ZM143.77,31.98h-64.03v16.02h64.03v-16.02ZM157.67,240.11c18.3,0,33.96-12.74,33.96-31.6v-97.03c0-19.26-16.11-31.64-34.31-31.64h-91.14c-18.2,0-34.32,12.38-34.32,31.63v97.03c0,19.24,16.13,31.65,34.32,31.64l91.5-.03ZM143.77,271.98h-64.03v16.02h64.03v-16.02Z"/>
</svg>